<svg width="70" height="60" viewBox="0 0 70 60" fill="none" xmlns="http://www.w3.org/2000/svg">
<g clip-path="url(#clip0)">
<path fill-rule="evenodd" clip-rule="evenodd" d="M6.3209 2.64215C4.09088 7.35115 3.58338 16.6652 5.29085 21.5422C5.66115 22.6 6.05455 23.8686 6.16515 24.3616C6.43308 25.5577 9.91365 33.6569 11.3096 36.3335C12.6797 38.96 12.6543 38.9862 10.0265 37.6502C6.2467 35.7287 3.27363 31.7787 1.97653 26.9554C1.05725 23.537 -0.0699248 23.4739 0.00340018 26.8449C0.131325 32.725 5.10133 39.0101 12.5143 42.6669C15.4549 44.1173 14.604 42.9647 21.1728 54.3985C23.9718 59.2708 24.1069 59.4269 25.5233 59.4269C27.2822 59.4269 27.5332 59.0405 28.5214 54.8116C29.5233 50.524 30.6489 46.8036 31.855 43.7926L32.7209 41.6308L31.7794 40.3392C31.2616 39.6288 30.7241 39.0464 30.5854 39.0449C30.1209 39.0401 28.013 43.8057 26.6907 47.8496L25.383 51.8493L23.8288 49.5805C22.3884 47.4772 17.8781 39.1441 16.7646 36.5281C12.7732 27.1514 14.4049 15.81 20.2289 12.4479C22.2828 11.2621 21.9055 9.80471 19.7434 10.5725C15.3206 12.1432 11.3128 18.8459 10.8847 25.3885C10.7878 26.8686 9.6718 24.2572 8.5497 19.9248C7.39838 15.4796 7.2988 6.87319 8.3614 3.6664C9.31498 0.789153 7.60505 -0.0691833 6.3209 2.64215ZM59.6194 1.50593C59.5001 1.79608 59.5895 3.04787 59.8179 4.28788C61.0305 10.8705 60.6969 16.8218 58.8185 22.1193C57.5107 25.8074 56.9997 26.5924 56.9913 24.9265C56.9638 19.5599 53.2409 13.0468 48.9994 10.945C45.8483 9.38364 45.5535 10.4644 48.4441 12.9813C56.4815 19.9795 54.7788 34.1049 44.0297 49.6004L42.4418 51.8894L41.8897 49.985C40.4092 44.8783 39.8999 43.5657 37.9758 39.8967L35.9027 35.9435L37.5694 33.9256C38.4861 32.8159 40.3605 31.2282 41.7348 30.3974C43.1091 29.5667 44.1689 28.7056 44.0898 28.484C43.5928 27.0891 39.8639 28.6056 36.3782 31.62L33.9569 33.7139L31.8107 31.7916C29.5081 29.7292 25.7842 27.7405 24.6196 27.9516C23.3778 28.1765 23.5306 28.974 24.9439 29.6445C31.4987 32.7544 36.1677 41.0219 39.4824 55.3884C40.3194 59.0158 40.608 59.4269 42.3186 59.4269C43.7259 59.4269 43.8838 59.2576 46.0863 55.3884C47.444 53.0034 50.9778 47.0522 52.2694 44.9758C52.7617 44.1841 54.0359 43.3017 56.1271 42.3043C62.2577 39.38 67.0639 33.4872 68.0333 27.7069C68.7175 23.6254 67.1383 23.0145 66.0258 26.9304C64.6355 31.8248 61.2455 36.2216 57.4486 38.0556C55.5698 38.9632 55.5467 38.7871 57.1208 35.5437C64.2499 20.8547 65.6615 10.6021 61.6526 2.62973C60.9664 1.26515 59.9493 0.703009 59.6194 1.50593Z" fill="white"/>
</g>
<defs>
<clipPath id="clip0">
<rect width="70" height="60" fill="white"/>
</clipPath>
</defs>
</svg>
